<svg xmlns="http://www.w3.org/2000/svg" version="1.1" xmlns:xlink="http://www.w3.org/1999/xlink"
    xmlns:svgjs="http://svgjs.dev/svgjs" width="2000" height="313" viewBox="0 0 2000 313">
    <g transform="matrix(1,0,0,1,-1.2121212121212466,0.9489482043880457)">
        <svg viewBox="0 0 396 62" data-background-color="#ffffff"
            preserveAspectRatio="xMidYMid meet" height="313" width="2000"
            xmlns="http://www.w3.org/2000/svg" xmlns:xlink="http://www.w3.org/1999/xlink">
            <g id="tight-bounds" transform="matrix(1,0,0,1,0.2400000000000091,-0.18797057083725122)">
                <svg viewBox="0 0 395.52 62.375941141674474" height="62.375941141674474"
                    width="395.52">
                    <g>
                        <svg viewBox="0 0 505.06042525746466 79.65114117831892"
                            height="62.375941141674474" width="395.52">
                            <g>
                                <rect width="5.197555796988782" height="57.922863157894724"
                                    x="90.73670245265187" y="10.8641390102121" fill="#ffffff"
                                    opacity="1" stroke-width="0" stroke="transparent"
                                    fill-opacity="1" class="rect-i$-0"
                                    data-fill-palette-color="primary" rx="1%" id="i$-0"
                                    data-palette-color="#010c80"></rect>
                            </g>
                            <g transform="matrix(1,0,0,1,109.54042525746469,11.008225734485467)">
                                <svg viewBox="0 0 395.52 57.63468970934799"
                                    height="57.63468970934799" width="395.52">
                                    <g id="textblocktransform">
                                        <svg viewBox="0 0 395.52 57.63468970934799"
                                            height="57.63468970934799" width="395.52" id="textblock">
                                            <g>
                                                <svg viewBox="0 0 395.52 57.63468970934799"
                                                    height="57.63468970934799" width="395.52">
                                                    <g transform="matrix(1,0,0,1,0,0)">
                                                        <svg width="395.52"
                                                            viewBox="3.8 -36.5 255.38 37.1"
                                                            height="57.63468970934799"
                                                            data-palette-color="#010c80">
                                                            <g class="undefined-text-0"
                                                                data-fill-palette-color="primary"
                                                                id="text-0">
                                                                <path
                                                                    d="M8.6 0L3.8 0 3.8-35 18.55-35Q21.85-35 24.55-33.52 27.25-32.05 28.85-29.4 30.45-26.75 30.45-23.2L30.45-23.2Q30.45-19.75 28.88-17.1 27.3-14.45 24.6-12.95 21.9-11.45 18.45-11.45L18.45-11.45 8.6-11.45 8.6 0ZM8.6-30.75L8.6-15.7 17.9-15.7Q20.05-15.7 21.83-16.57 23.6-17.45 24.63-19.15 25.65-20.85 25.65-23.2L25.65-23.2Q25.65-25.6 24.63-27.28 23.6-28.95 21.83-29.85 20.05-30.75 17.95-30.75L17.95-30.75 8.6-30.75ZM40.7 0L36.05 0 36.05-25.5 40.7-25.5 40.7 0ZM38.4-29.55L38.4-29.55Q37.15-29.55 36.22-30.48 35.3-31.4 35.3-32.65L35.3-32.65Q35.3-33.9 36.22-34.83 37.15-35.75 38.4-35.75L38.4-35.75Q39.65-35.75 40.57-34.83 41.5-33.9 41.5-32.65L41.5-32.65Q41.5-31.4 40.57-30.48 39.65-29.55 38.4-29.55ZM62.65 0L56.65 0Q53.25 0 51.32-1.95 49.4-3.9 49.4-7.25L49.4-7.25 49.4-31.9 54-31.9 54-7.55Q54-5.9 54.92-4.93 55.84-3.95 57.5-3.95L57.5-3.95 62.65-3.95 62.65 0ZM62.75-21.55L45-21.55 45-25.5 62.75-25.5 62.75-21.55ZM83.64 0L80.64 0Q76.69 0 73.59-1.7 70.49-3.4 68.69-6.28 66.89-9.15 66.89-12.75L66.89-12.75Q66.89-16.35 68.69-19.23 70.49-22.1 73.59-23.8 76.69-25.5 80.64-25.5L80.64-25.5 83.64-25.5 83.64-21.55 80.49-21.55Q77.94-21.55 75.92-20.38 73.89-19.2 72.72-17.2 71.54-15.2 71.54-12.75L71.54-12.75Q71.54-10.3 72.72-8.3 73.89-6.3 75.92-5.13 77.94-3.95 80.49-3.95L80.49-3.95 83.64-3.95 83.64 0ZM93.49 0L88.89 0 88.89-36.5 93.49-36.5 93.49-22.2Q95.04-24.2 97.27-25.15 99.49-26.1 101.89-26.1L101.89-26.1Q105.29-26.1 107.79-24.68 110.29-23.25 111.69-20.7 113.09-18.15 113.09-14.75L113.09-14.75 113.09 0 108.49 0 108.49-14.7Q108.49-17 107.44-18.68 106.39-20.35 104.67-21.25 102.94-22.15 100.99-22.15L100.99-22.15Q99.04-22.15 97.34-21.28 95.64-20.4 94.57-18.75 93.49-17.1 93.49-14.8L93.49-14.8 93.49 0ZM139.89 0L133.34 0Q129.14 0 125.89-1.58 122.64-3.15 120.81-6.03 118.99-8.9 118.99-12.75L118.99-12.75Q118.99-16.55 120.54-19.58 122.09-22.6 124.84-24.35 127.59-26.1 131.24-26.1L131.24-26.1Q135.19-26.1 137.81-24.4 140.44-22.7 141.74-19.83 143.04-16.95 143.04-13.4L143.04-13.4Q143.04-12.85 143.01-12.25 142.99-11.65 142.89-11.2L142.89-11.2 123.89-11.2Q124.14-8.85 125.44-7.23 126.74-5.6 128.76-4.78 130.79-3.95 133.24-3.95L133.24-3.95 139.89-3.95 139.89 0ZM123.84-14.45L123.84-14.45 138.39-14.45Q138.39-15.4 138.19-16.48 137.99-17.55 137.49-18.57 136.99-19.6 136.16-20.43 135.34-21.25 134.11-21.75 132.89-22.25 131.24-22.25L131.24-22.25Q129.49-22.25 128.16-21.58 126.84-20.9 125.89-19.78 124.94-18.65 124.44-17.25 123.94-15.85 123.84-14.45ZM160.64 0.6L160.64 0.6Q164.34 0.6 167.29-1 170.24-2.6 171.96-5.63 173.69-8.65 173.69-12.9L173.69-12.9 173.69-36.5 169.09-36.5 169.09-20.95 168.99-20.95Q168.14-22.5 166.76-23.65 165.39-24.8 163.61-25.45 161.84-26.1 159.89-26.1L159.89-26.1Q156.34-26.1 153.54-24.5 150.74-22.9 149.11-19.98 147.49-17.05 147.49-13.05L147.49-13.05Q147.49-9.9 148.46-7.38 149.44-4.85 151.19-3.05 152.94-1.25 155.34-0.33 157.74 0.6 160.64 0.6ZM160.64-3.35L160.64-3.35Q158.29-3.35 156.36-4.5 154.44-5.65 153.29-7.75 152.14-9.85 152.14-12.75L152.14-12.75Q152.14-15.55 153.26-17.65 154.39-19.75 156.29-20.95 158.19-22.15 160.59-22.15L160.59-22.15Q162.94-22.15 164.86-21 166.79-19.85 167.91-17.73 169.04-15.6 169.04-12.7L169.04-12.7Q169.04-9.85 167.91-7.75 166.79-5.65 164.86-4.5 162.94-3.35 160.64-3.35ZM198.03 0L179.78 0 179.78-4.25 186.53-4.25 186.53-30.75 179.78-30.75 179.78-35 198.03-35 198.03-30.75 191.33-30.75 191.33-4.25 198.03-4.25 198.03 0ZM208.88 0L204.28 0 204.28-14.75Q204.28-18.15 205.81-20.7 207.33-23.25 210.03-24.68 212.73-26.1 216.18-26.1L216.18-26.1Q219.68-26.1 222.35-24.68 225.03-23.25 226.56-20.7 228.08-18.15 228.08-14.75L228.08-14.75 228.08 0 223.48 0 223.48-14.7Q223.48-17 222.45-18.68 221.43-20.35 219.75-21.25 218.08-22.15 216.18-22.15L216.18-22.15Q214.28-22.15 212.6-21.25 210.93-20.35 209.91-18.68 208.88-17 208.88-14.7L208.88-14.7 208.88 0ZM239.98 0L235.38 0 235.38-14.75Q235.38-18.15 236.9-20.7 238.43-23.25 241.13-24.68 243.83-26.1 247.28-26.1L247.28-26.1Q250.78-26.1 253.45-24.68 256.13-23.25 257.65-20.7 259.18-18.15 259.18-14.75L259.18-14.75 259.18 0 254.58 0 254.58-14.7Q254.58-17 253.55-18.68 252.53-20.35 250.85-21.25 249.18-22.15 247.28-22.15L247.28-22.15Q245.38-22.15 243.7-21.25 242.03-20.35 241-18.68 239.98-17 239.98-14.7L239.98-14.7 239.98 0Z"
                                                                    fill="#ffffff"
                                                                    data-fill-palette-color="primary"></path>
                                                            </g>
                                                        </svg>
                                                    </g>
                                                </svg>
                                            </g>
                                        </svg>
                                    </g>
                                </svg>
                            </g>
                            <g>
                                <svg viewBox="0 0 77.13053544482783 79.65114117831892"
                                    height="79.65114117831892" width="77.13053544482783">
                                    <g>
                                        <svg xmlns="http://www.w3.org/2000/svg"
                                            viewBox="11.75 10.5 76.5 79" x="0" y="0"
                                            height="79.65114117831892" width="77.13053544482783"
                                            class="icon-icon-0" data-fill-palette-color="accent"
                                            id="icon-0">
                                            <g data-name="Layer 65" fill="#0023ff"
                                                data-fill-palette-color="accent">
                                                <rect x="68.91" y="25" width="4.34" height="5"
                                                    fill="#ffffff" data-fill-palette-color="accent"></rect>
                                                <rect x="68.91" y="45" width="4.34" height="5"
                                                    fill="#ffffff" data-fill-palette-color="accent"></rect>
                                                <polygon
                                                    points="70.75 10.5 11.75 10.5 11.75 14.35 13.66 14.35 68.41 14.35 70.75 14.35 70.75 10.5"
                                                    fill="#ffffff" data-fill-palette-color="accent"></polygon>
                                                <path
                                                    d="M14.16 89.5H31.7V66.14a0.5 0.5 0 0 1 0.5-0.5H49.88a0.51 0.51 0 0 1 0.5 0.5V89.5H67.91V15.35H14.16ZM52.51 19.88a0.5 0.5 0 0 1 0.5-0.5H63.44a0.5 0.5 0 0 1 0.5 0.5V30.3a0.5 0.5 0 0 1-0.5 0.5H53a0.5 0.5 0 0 1-0.5-0.5Zm0 14.91a0.5 0.5 0 0 1 0.5-0.5H63.44a0.5 0.5 0 0 1 0.5 0.5V45.21a0.5 0.5 0 0 1-0.5 0.5H53a0.5 0.5 0 0 1-0.5-0.5Zm0 14.91a0.5 0.5 0 0 1 0.5-0.5H63.44a0.5 0.5 0 0 1 0.5 0.5V60.13a0.5 0.5 0 0 1-0.5 0.5H53a0.51 0.51 0 0 1-0.5-0.5ZM35.32 19.88a0.5 0.5 0 0 1 0.5-0.5H46.25a0.5 0.5 0 0 1 0.5 0.5V30.3a0.5 0.5 0 0 1-0.5 0.5H35.82a0.5 0.5 0 0 1-0.5-0.5Zm0 14.91a0.5 0.5 0 0 1 0.5-0.5H46.25a0.5 0.5 0 0 1 0.5 0.5V45.21a0.5 0.5 0 0 1-0.5 0.5H35.82a0.5 0.5 0 0 1-0.5-0.5Zm0 14.91a0.5 0.5 0 0 1 0.5-0.5H46.25a0.5 0.5 0 0 1 0.5 0.5V60.13a0.5 0.5 0 0 1-0.5 0.5H35.82a0.5 0.5 0 0 1-0.5-0.5ZM18.13 19.88a0.5 0.5 0 0 1 0.5-0.5H29.06a0.5 0.5 0 0 1 0.5 0.5V30.3a0.5 0.5 0 0 1-0.5 0.5H18.63a0.5 0.5 0 0 1-0.5-0.5Zm0 14.91a0.5 0.5 0 0 1 0.5-0.5H29.06a0.5 0.5 0 0 1 0.5 0.5V45.21a0.5 0.5 0 0 1-0.5 0.5H18.63a0.5 0.5 0 0 1-0.5-0.5Zm0 14.91a0.5 0.5 0 0 1 0.5-0.5H29.06a0.5 0.5 0 0 1 0.5 0.5V60.13a0.51 0.51 0 0 1-0.5 0.5H18.63a0.5 0.5 0 0 1-0.5-0.5Z"
                                                    fill="#ffffff" data-fill-palette-color="accent"></path>
                                                <rect x="32.7" y="66.64" width="16.68"
                                                    height="22.86" fill="#ffffff"
                                                    data-fill-palette-color="accent"></rect>
                                                <rect x="19.13" y="50.2" width="9.43" height="9.43"
                                                    fill="#ffffff" data-fill-palette-color="accent"></rect>
                                                <rect x="19.13" y="35.29" width="9.43" height="9.43"
                                                    fill="#ffffff" data-fill-palette-color="accent"></rect>
                                                <rect x="19.13" y="20.38" width="9.43" height="9.43"
                                                    fill="#ffffff" data-fill-palette-color="accent"></rect>
                                                <rect x="36.32" y="50.2" width="9.43" height="9.43"
                                                    fill="#ffffff" data-fill-palette-color="accent"></rect>
                                                <rect x="36.32" y="35.29" width="9.43" height="9.43"
                                                    fill="#ffffff" data-fill-palette-color="accent"></rect>
                                                <rect x="36.32" y="20.38" width="9.43" height="9.43"
                                                    fill="#ffffff" data-fill-palette-color="accent"></rect>
                                                <rect x="53.51" y="50.2" width="9.43" height="9.43"
                                                    fill="#ffffff" data-fill-palette-color="accent"></rect>
                                                <rect x="53.51" y="35.29" width="9.43" height="9.43"
                                                    fill="#ffffff" data-fill-palette-color="accent"></rect>
                                                <rect x="53.51" y="20.38" width="9.43" height="9.43"
                                                    fill="#ffffff" data-fill-palette-color="accent"></rect>
                                                <rect x="74.25" y="20.5" width="14" height="34"
                                                    fill="#ffffff" data-fill-palette-color="accent"></rect>
                                            </g>
                                        </svg>
                                    </g>
                                </svg>
                            </g>
                        </svg>
                    </g>
                    <defs></defs>
                </svg>
                <rect width="395.52" height="62.375941141674474" fill="none" stroke="none"
                    visibility="hidden"></rect>
            </g>
        </svg>
    </g>
</svg>