<svg xmlns="http://www.w3.org/2000/svg" version="1.1" xmlns:xlink="http://www.w3.org/1999/xlink"
    xmlns:svgjs="http://svgjs.dev/svgjs" width="2000" height="540" viewBox="0 0 2000 540">
    <g transform="matrix(1,0,0,1,-1.2121212121212466,-1.0922493849087118)">
        <svg viewBox="0 0 396 107" data-background-color="#ffffff"
            preserveAspectRatio="xMidYMid meet" height="540" width="2000"
            xmlns="http://www.w3.org/2000/svg" xmlns:xlink="http://www.w3.org/1999/xlink">
            <g id="tight-bounds" transform="matrix(1,0,0,1,0.2400000000000091,0.21642719293561186)">
                <svg viewBox="0 0 395.52 106.56714561412875" height="106.56714561412875"
                    width="395.52">
                    <g>
                        <svg viewBox="0 0 560.013784666897 150.88761765907302"
                            height="106.56714561412875" width="395.52">
                            <g transform="matrix(1,0,0,1,164.49378466689706,46.62646397486252)">
                                <svg viewBox="0 0 395.52 57.63468970934799"
                                    height="57.63468970934799" width="395.52">
                                    <g id="textblocktransform">
                                        <svg viewBox="0 0 395.52 57.63468970934799"
                                            height="57.63468970934799" width="395.52" id="textblock">
                                            <g>
                                                <svg viewBox="0 0 395.52 57.63468970934799"
                                                    height="57.63468970934799" width="395.52">
                                                    <g transform="matrix(1,0,0,1,0,0)">
                                                        <svg width="395.52"
                                                            viewBox="3.8 -36.5 254.57999999999998 37.1"
                                                            height="57.63468970934799"
                                                            data-palette-color="#010c80">
                                                            <path
                                                                d="M8.6 0L3.8 0 3.8-35 18.55-35Q21.85-35 24.55-33.52 27.25-32.05 28.85-29.4 30.45-26.75 30.45-23.2L30.45-23.2Q30.45-19.75 28.88-17.1 27.3-14.45 24.6-12.95 21.9-11.45 18.45-11.45L18.45-11.45 8.6-11.45 8.6 0ZM8.6-30.75L8.6-15.7 17.9-15.7Q20.05-15.7 21.83-16.57 23.6-17.45 24.63-19.15 25.65-20.85 25.65-23.2L25.65-23.2Q25.65-25.6 24.63-27.28 23.6-28.95 21.83-29.85 20.05-30.75 17.95-30.75L17.95-30.75 8.6-30.75ZM40.7 0L36.05 0 36.05-25.5 40.7-25.5 40.7 0ZM38.4-29.55L38.4-29.55Q37.15-29.55 36.22-30.48 35.3-31.4 35.3-32.65L35.3-32.65Q35.3-33.9 36.22-34.83 37.15-35.75 38.4-35.75L38.4-35.75Q39.65-35.75 40.57-34.83 41.5-33.9 41.5-32.65L41.5-32.65Q41.5-31.4 40.57-30.48 39.65-29.55 38.4-29.55ZM62.65 0L56.65 0Q53.25 0 51.32-1.95 49.4-3.9 49.4-7.25L49.4-7.25 49.4-31.9 54-31.9 54-7.55Q54-5.9 54.92-4.93 55.84-3.95 57.5-3.95L57.5-3.95 62.65-3.95 62.65 0ZM62.75-21.55L45-21.55 45-25.5 62.75-25.5 62.75-21.55ZM82.84 0L79.84 0Q75.89 0 72.79-1.7 69.69-3.4 67.89-6.28 66.09-9.15 66.09-12.75L66.09-12.75Q66.09-16.35 67.89-19.23 69.69-22.1 72.79-23.8 75.89-25.5 79.84-25.5L79.84-25.5 82.84-25.5 82.84-21.55 79.69-21.55Q77.14-21.55 75.12-20.38 73.09-19.2 71.92-17.2 70.74-15.2 70.74-12.75L70.74-12.75Q70.74-10.3 71.92-8.3 73.09-6.3 75.12-5.13 77.14-3.95 79.69-3.95L79.69-3.95 82.84-3.95 82.84 0ZM92.69 0L88.09 0 88.09-36.5 92.69-36.5 92.69-22.2Q94.24-24.2 96.47-25.15 98.69-26.1 101.09-26.1L101.09-26.1Q104.49-26.1 106.99-24.68 109.49-23.25 110.89-20.7 112.29-18.15 112.29-14.75L112.29-14.75 112.29 0 107.69 0 107.69-14.7Q107.69-17 106.64-18.68 105.59-20.35 103.87-21.25 102.14-22.15 100.19-22.15L100.19-22.15Q98.24-22.15 96.54-21.28 94.84-20.4 93.77-18.75 92.69-17.1 92.69-14.8L92.69-14.8 92.69 0ZM139.09 0L132.54 0Q128.34 0 125.09-1.58 121.84-3.15 120.01-6.03 118.19-8.9 118.19-12.75L118.19-12.75Q118.19-16.55 119.74-19.58 121.29-22.6 124.04-24.35 126.79-26.1 130.44-26.1L130.44-26.1Q134.39-26.1 137.01-24.4 139.64-22.7 140.94-19.83 142.24-16.95 142.24-13.4L142.24-13.4Q142.24-12.85 142.21-12.25 142.19-11.65 142.09-11.2L142.09-11.2 123.09-11.2Q123.34-8.85 124.64-7.23 125.94-5.6 127.96-4.78 129.99-3.95 132.44-3.95L132.44-3.95 139.09-3.95 139.09 0ZM123.04-14.45L123.04-14.45 137.59-14.45Q137.59-15.4 137.39-16.48 137.19-17.55 136.69-18.57 136.19-19.6 135.36-20.43 134.54-21.25 133.31-21.75 132.09-22.25 130.44-22.25L130.44-22.25Q128.69-22.25 127.36-21.58 126.04-20.9 125.09-19.78 124.14-18.65 123.64-17.25 123.14-15.85 123.04-14.45ZM159.84 0.6L159.84 0.6Q163.54 0.6 166.49-1 169.44-2.6 171.16-5.63 172.89-8.65 172.89-12.9L172.89-12.9 172.89-36.5 168.29-36.5 168.29-20.95 168.19-20.95Q167.34-22.5 165.96-23.65 164.59-24.8 162.81-25.45 161.04-26.1 159.09-26.1L159.09-26.1Q155.54-26.1 152.74-24.5 149.94-22.9 148.31-19.98 146.69-17.05 146.69-13.05L146.69-13.05Q146.69-9.9 147.66-7.38 148.64-4.85 150.39-3.05 152.14-1.25 154.54-0.33 156.94 0.6 159.84 0.6ZM159.84-3.35L159.84-3.35Q157.49-3.35 155.56-4.5 153.64-5.65 152.49-7.75 151.34-9.85 151.34-12.75L151.34-12.75Q151.34-15.55 152.46-17.65 153.59-19.75 155.49-20.95 157.39-22.15 159.79-22.15L159.79-22.15Q162.14-22.15 164.06-21 165.99-19.85 167.11-17.73 168.24-15.6 168.24-12.7L168.24-12.7Q168.24-9.85 167.11-7.75 165.99-5.65 164.06-4.5 162.14-3.35 159.84-3.35ZM197.23 0L178.98 0 178.98-4.25 185.73-4.25 185.73-30.75 178.98-30.75 178.98-35 197.23-35 197.23-30.75 190.53-30.75 190.53-4.25 197.23-4.25 197.23 0ZM208.08 0L203.48 0 203.48-14.75Q203.48-18.15 205.01-20.7 206.53-23.25 209.23-24.68 211.93-26.1 215.38-26.1L215.38-26.1Q218.88-26.1 221.56-24.68 224.23-23.25 225.76-20.7 227.28-18.15 227.28-14.75L227.28-14.75 227.28 0 222.68 0 222.68-14.7Q222.68-17 221.66-18.68 220.63-20.35 218.96-21.25 217.28-22.15 215.38-22.15L215.38-22.15Q213.48-22.15 211.81-21.25 210.13-20.35 209.11-18.68 208.08-17 208.08-14.7L208.08-14.7 208.08 0ZM239.18 0L234.58 0 234.58-14.75Q234.58-18.15 236.1-20.7 237.63-23.25 240.33-24.68 243.03-26.1 246.48-26.1L246.48-26.1Q249.98-26.1 252.65-24.68 255.33-23.25 256.85-20.7 258.38-18.15 258.38-14.75L258.38-14.75 258.38 0 253.78 0 253.78-14.7Q253.78-17 252.75-18.68 251.73-20.35 250.05-21.25 248.38-22.15 246.48-22.15L246.48-22.15Q244.58-22.15 242.9-21.25 241.23-20.35 240.2-18.68 239.18-17 239.18-14.7L239.18-14.7 239.18 0Z"
                                                                opacity="1"
                                                                transform="matrix(1,0,0,1,0,0)"
                                                                fill="#ffffff"
                                                                class="undefined-text-0"
                                                                data-fill-palette-color="primary"
                                                                id="text-0"></path>
                                                        </svg>
                                                    </g>
                                                </svg>
                                            </g>
                                        </svg>
                                    </g>
                                </svg>
                            </g>
                            <g>
                                <svg viewBox="0 0 150.88761765907302 150.88761765907302"
                                    height="150.88761765907302" width="150.88761765907302">
                                    <g>
                                        <svg xmlns="http://www.w3.org/2000/svg"
                                            xmlns:xlink="http://www.w3.org/1999/xlink" version="1.1"
                                            x="0" y="0" viewBox="5 5 90 90"
                                            enable-background="new 0 0 100 100" xml:space="preserve"
                                            height="150.88761765907302" width="150.88761765907302"
                                            class="icon-icon-0" data-fill-palette-color="accent"
                                            id="icon-0"><path fill="#ffffff" d="M95 52c0-12.871-5.692-24.431-14.682-32.318C72.431 10.692 60.871 5 48 5 24.29 5 5 24.29 5 48c0 12.868 5.69 24.426 14.677 32.313C27.564 89.306 39.126 95 52 95c0.084 0 0.166-0.006 0.25-0.006S52.416 95 52.5 95C75.972 95 95 75.972 95 52.5c0-0.084-0.006-0.166-0.006-0.25S95 52.084 95 52zM21.828 73.371c-4.245-5.978-6.77-13.259-6.822-21.121 0.135-20.511 16.732-37.109 37.244-37.244 7.862 0.052 15.144 2.577 21.121 6.822C80.224 28.473 84.5 37.758 84.5 48c0 20.126-16.374 36.5-36.5 36.5C37.758 84.5 28.473 80.224 21.828 73.371zM6 48C6 24.841 24.841 6 48 6c9.858 0 18.926 3.422 26.1 9.13C67.637 11.242 60.076 9 52 9 28.29 9 9 28.29 9 52c0 8.074 2.241 15.633 6.127 22.095C9.421 66.923 6 57.856 6 48zM52 89c-10.08 0-19.227-4.055-25.905-10.615C32.269 82.854 39.838 85.5 48 85.5c20.678 0 37.5-16.822 37.5-37.5 0-8.162-2.646-15.731-7.115-21.905C84.945 32.773 89 41.92 89 52 89 72.402 72.402 89 52 89z" data-fill-palette-color="accent"></path></svg>
                                    </g>
                                </svg>
                            </g>
                        </svg>
                    </g>
                    <defs></defs>
                </svg>
                <rect width="395.52" height="106.56714561412875" fill="none" stroke="none"
                    visibility="hidden"></rect>
            </g>
        </svg>
    </g>
</svg>