<svg xmlns="http://www.w3.org/2000/svg" version="1.1" xmlns:xlink="http://www.w3.org/1999/xlink"
    xmlns:svgjs="http://svgjs.dev/svgjs" viewBox="0 0 1000 400">
    <g>
        <svg viewBox="0 0 396 131" data-background-color="#ffffff"
            preserveAspectRatio="xMidYMid meet" height="330" width="1000"
            xmlns="http://www.w3.org/2000/svg" xmlns:xlink="http://www.w3.org/1999/xlink">
            <g id="tight-bounds" transform="matrix(1,0,0,1,0.2400000000000091,-0.1005673425886755)">
                <svg viewBox="0 0 395.52 131.20113468517735" height="131.20113468517735"
                    width="395.52">
                    <g>
                        <svg viewBox="0 0 619.5784579956363 205.52537599999997"
                            height="131.20113468517735" width="395.52">
                            <g transform="matrix(1,0,0,1,224.05845799563633,63.51032436363635)">
                                <svg viewBox="0 0 395.52 78.50472727272727"
                                    height="78.50472727272727" width="395.52">
                                    <g id="textblocktransform">
                                        <svg viewBox="0 0 395.52 78.50472727272727"
                                            height="78.50472727272727" width="395.52" id="textblock">
                                            <g>
                                                <svg viewBox="0 0 395.52 78.50472727272727"
                                                    height="78.50472727272727" width="395.52">
                                                    <g transform="matrix(1,0,0,1,0,0)">
                                                        <svg width="395.52"
                                                            viewBox="0.49 -37.5 193.34 38.38"
                                                            height="78.50472727272727"
                                                            data-palette-color="#ffffff">
                                                            <path
                                                                d="M1.37-2.78L1.37-2.78 2.05-5.52Q6.3-3.22 10.4-3.22L10.4-3.22Q13.33-3.22 15.41-4.42 17.48-5.62 17.48-8.3L17.48-8.3Q17.48-10.69 15.72-12.67 13.96-14.65 11.47-16.16 8.98-17.68 6.49-19.26 4-20.85 2.25-23.17 0.49-25.49 0.49-28.32L0.49-28.32Q0.49-31.79 2.98-34.64 5.47-37.5 8.98-37.5L8.98-37.5Q11.67-37.5 14.97-36.43 18.26-35.35 20.51-34.28L20.51-34.28 19.92-32.32Q14.36-34.23 10.55-34.23L10.55-34.23Q8.2-34.23 6.54-32.71 4.88-31.2 4.88-28.81L4.88-28.81Q4.88-27 5.81-25.54 6.74-24.07 8.23-23 9.72-21.92 11.55-20.9 13.38-19.87 15.19-18.7 16.99-17.53 18.48-16.16 19.97-14.79 20.9-12.72 21.83-10.64 21.83-8.06L21.83-8.06Q21.83-4.39 19.48-2.08 17.14 0.24 13.38 0.24L13.38 0.24Q10.16 0.24 6.52-0.66 2.88-1.56 1.37-2.78ZM24.56-35.16L24.56-35.16 27.1-34.57Q27.24-32.57 27.32-28.17 27.39-23.78 27.49-22.12L27.49-22.12Q30.12-24.9 33.84-24.9L33.84-24.9Q37.16-24.9 39.57-22.56 41.99-20.21 41.99-16.31L41.99-16.31 41.99-0.24Q41.35 0.05 40.38 0.05L40.38 0.05Q39.3 0.05 38.43-0.15L38.43-0.15Q38.43-0.54 38.45-1.34 38.47-2.15 38.47-2.54L38.47-2.54Q38.47-4.44 38.33-9.11 38.18-13.77 38.18-16.89L38.18-16.89Q37.45-21.39 33.64-21.39L33.64-21.39Q31.98-21.39 30.37-20.48 28.76-19.58 28.02-18.36L28.02-18.36Q28.17-15.28 28.22-9.08 28.27-2.88 28.37-0.15L28.37-0.15Q27.19 0.05 26.36 0.05L26.36 0.05Q25.14 0.05 24.31-0.24L24.31-0.24Q24.41-2.64 24.41-7.81L24.41-7.81Q24.41-10.11 24.36-16.24 24.31-22.36 24.34-26.78 24.36-31.2 24.56-35.16ZM47.75-21.09L47.75-21.09 46.77-23.58Q48.04-24.85 50-25.61 51.95-26.37 53.85-26.37L53.85-26.37Q62.1-26.37 62.1-12.11L62.1-12.11Q62.1-10.16 61.88-6.35 61.66-2.54 61.66-0.63L61.66-0.63Q61.27 0.88 60.15 0.88L60.15 0.88Q59.27 0.88 58.54 0 57.81-0.88 57.81-1.95L57.81-1.95Q57.81-2.29 57.86-2.44L57.86-2.44Q54.83 0.49 51.41 0.49L51.41 0.49Q48.82 0.49 46.89-1.39 44.97-3.27 44.97-5.96L44.97-5.96Q44.97-10.5 48.51-14.16 52.05-17.82 56.54-17.82L56.54-17.82Q56.73-17.82 56.93-17.8 57.12-17.77 57.39-17.72 57.66-17.68 57.81-17.68L57.81-17.68Q57.42-23.39 53.27-23.39L53.27-23.39Q50.83-23.39 47.75-21.09ZM57.95-5.81L57.95-5.81Q58.05-9.23 58.05-10.99L58.05-10.99Q58.05-12.45 57.95-15.09L57.95-15.09 57.56-15.09Q54.1-15.04 51.24-12.5 48.38-9.96 48.38-6.35L48.38-6.35Q48.38-4.79 49.34-3.86 50.29-2.93 51.66-2.93L51.66-2.93Q53.8-2.93 57.95-5.81ZM82.17-18.6L82.17-18.6 80.02-18.75Q79-21.48 76.56-21.48L76.56-21.48Q75.48-21.48 74.28-21 73.09-20.51 72.31-20 71.53-19.48 70.26-18.51L70.26-18.51Q70.26-17.82 70.23-14.06 70.21-10.3 70.28-5.71 70.35-1.12 70.45-0.78L70.45-0.78Q70.01 0.68 68.74 0.68L68.74 0.68Q67.86 0.68 67.06-0.02 66.25-0.73 66.06-1.76L66.06-1.76Q66.98-17.43 67.72-25.44L67.72-25.44 69.91-24.95 70.06-21.68Q73.48-24.51 75.92-24.51L75.92-24.51Q78.61-24.51 80.44-23.29 82.27-22.07 82.27-19.73L82.27-19.73Q82.27-18.99 82.17-18.6ZM102.04 0L102.04 0 97.55-0.1Q95.74-1.9 92.59-5.93 89.44-9.96 88.61-10.89L88.61-10.89 88.61-0.83Q88.17 0.63 86.9 0.63L86.9 0.63Q86.03 0.63 85.22-0.07 84.41-0.78 84.22-1.81L84.22-1.81Q84.37-6.84 84.37-18.51 84.37-30.18 84.56-35.25L84.56-35.25 87.54-34.62Q87.59-32.67 87.71-26.61 87.83-20.56 87.93-17.58L87.93-17.58 99.79-26.27 100.62-24.07Q95.99-20.7 89.74-14.55L89.74-14.55Q91.05-13.13 95.57-7.64 100.09-2.15 102.04 0ZM132.41-35.16L132.41-35.16 135.34-35.01Q135.29-34.91 131.53-19.24 127.77-3.56 126.4-0.05L126.4-0.05Q125.92 0.05 125.43 0.05L125.43 0.05Q124.06 0.05 122.35-0.29L122.35-0.29Q121.03-4.2 118.35-16.11L118.35-16.11Q115.32-3.66 114-0.05L114-0.05Q113.51 0.05 113.02 0.05L113.02 0.05Q111.66 0.05 109.95-0.29L109.95-0.29Q109.22-2.49 108.26-6.3 107.31-10.11 106.29-14.75 105.26-19.38 104.5-22.97 103.75-26.56 102.92-30.66 102.09-34.77 101.99-35.16L101.99-35.16 104.77-35.16Q106.73-26.17 111.8-6.35L111.8-6.35Q112.54-8.98 114.29-15.53 116.05-22.07 116.64-24.17L116.64-24.17Q115.95-27.29 114.39-35.16L114.39-35.16 117.18-35.16Q119.13-26.17 124.21-6.35L124.21-6.35Q131.73-33.79 132.41-35.16ZM136.85-21.09L136.85-21.09 135.87-23.58Q137.14-24.85 139.1-25.61 141.05-26.37 142.95-26.37L142.95-26.37Q151.21-26.37 151.21-12.11L151.21-12.11Q151.21-10.16 150.99-6.35 150.77-2.54 150.77-0.63L150.77-0.63Q150.38 0.88 149.25 0.88L149.25 0.88Q148.37 0.88 147.64 0 146.91-0.88 146.91-1.95L146.91-1.95Q146.91-2.29 146.96-2.44L146.96-2.44Q143.93 0.49 140.51 0.49L140.51 0.49Q137.92 0.49 136-1.39 134.07-3.27 134.07-5.96L134.07-5.96Q134.07-10.5 137.61-14.16 141.15-17.82 145.64-17.82L145.64-17.82Q145.83-17.82 146.03-17.8 146.23-17.77 146.49-17.72 146.76-17.68 146.91-17.68L146.91-17.68Q146.52-23.39 142.37-23.39L142.37-23.39Q139.93-23.39 136.85-21.09ZM147.06-5.81L147.06-5.81Q147.15-9.23 147.15-10.99L147.15-10.99Q147.15-12.45 147.06-15.09L147.06-15.09 146.66-15.09Q143.2-15.04 140.34-12.5 137.49-9.96 137.49-6.35L137.49-6.35Q137.49-4.79 138.44-3.86 139.39-2.93 140.76-2.93L140.76-2.93Q142.9-2.93 147.06-5.81ZM168.44-25.1L168.44-25.1 171.71-24.66Q170.78-20.8 168.78-12.92 166.78-5.03 165.66-0.1L165.66-0.1Q163.75 0.24 162.34 0.24L162.34 0.24Q161.16 0.24 160.14 0.05L160.14 0.05Q159.41-2.49 157.82-7.98 156.23-13.48 155.13-17.53 154.04-21.58 153.16-25.29L153.16-25.29 156.38-25.05 162.73-4.74Q163.51-7.08 164.39-10.01 165.27-12.94 165.8-15.01 166.34-17.09 167.22-20.43 168.1-23.78 168.44-25.1ZM193.34-4.74L193.34-4.74 193.83-2.59Q191.68-1.81 187.46-0.85 183.23 0.1 181.18 0.1L181.18 0.1Q179.08 0.1 177.52-1.29 175.96-2.69 175.18-4.86 174.39-7.03 174.03-9.16 173.66-11.28 173.66-13.33L173.66-13.33Q173.66-25.54 184.7-25.54L184.7-25.54Q187.33-25.54 189.34-23.85 191.34-22.17 191.34-19.48L191.34-19.48Q191.34-18.02 190.53-16.89 189.73-15.77 188.58-15.11 187.43-14.45 185.65-13.92 183.87-13.38 182.5-13.13 181.13-12.89 179.23-12.6 177.32-12.3 176.59-12.16L176.59-12.16Q176.64-10.74 176.76-9.67 176.88-8.59 177.25-7.35 177.62-6.1 178.23-5.3 178.84-4.49 179.91-3.96 180.99-3.42 182.45-3.42L182.45-3.42Q184.21-3.42 186.75-3.74 189.29-4.05 191.26-4.39 193.24-4.74 193.34-4.74ZM176.79-15.19L176.79-15.19Q183.43-17.09 187.68-19.19L187.68-19.19Q187.33-20.8 186.75-21.53 186.16-22.27 184.99-22.27L184.99-22.27Q182.01-22.27 179.59-20.21 177.18-18.16 176.79-15.19Z"
                                                                opacity="1"
                                                                transform="matrix(1,0,0,1,0,0)"
                                                                fill="#ffffff"
                                                                class="undefined-text-0"
                                                                data-fill-palette-color="primary"
                                                                id="text-0"></path>
                                                        </svg>
                                                    </g>
                                                </svg>
                                            </g>
                                        </svg>
                                    </g>
                                </svg>
                            </g>
                            <g>
                                <svg viewBox="0 0 255.52537599999997 205.52537599999997"
                                    height="205.52537599999997" width="205.52537599999997">
                                    <g>
                                        <svg xmlns="http://www.w3.org/2000/svg"
                                            xmlns:xlink="http://www.w3.org/1999/xlink" version="1.1"
                                            x="0" y="0" viewBox="5 5 90 90"
                                            enable-background="new 0 0 100 100" xml:space="preserve"
                                            height="205.52537599999997" width="205.52537599999997"
                                            class="icon-icon-0" data-fill-palette-color="accent"
                                            id="icon-0"><path fill="#ffffff" d="M95 52c0-12.871-5.692-24.431-14.682-32.318C72.431 10.692 60.871 5 48 5 24.29 5 5 24.29 5 48c0 12.868 5.69 24.426 14.677 32.313C27.564 89.306 39.126 95 52 95c0.084 0 0.166-0.006 0.25-0.006S52.416 95 52.5 95C75.972 95 95 75.972 95 52.5c0-0.084-0.006-0.166-0.006-0.25S95 52.084 95 52zM21.828 73.371c-4.245-5.978-6.77-13.259-6.822-21.121 0.135-20.511 16.732-37.109 37.244-37.244 7.862 0.052 15.144 2.577 21.121 6.822C80.224 28.473 84.5 37.758 84.5 48c0 20.126-16.374 36.5-36.5 36.5C37.758 84.5 28.473 80.224 21.828 73.371zM6 48C6 24.841 24.841 6 48 6c9.858 0 18.926 3.422 26.1 9.13C67.637 11.242 60.076 9 52 9 28.29 9 9 28.29 9 52c0 8.074 2.241 15.633 6.127 22.095C9.421 66.923 6 57.856 6 48zM52 89c-10.08 0-19.227-4.055-25.905-10.615C32.269 82.854 39.838 85.5 48 85.5c20.678 0 37.5-16.822 37.5-37.5 0-8.162-2.646-15.731-7.115-21.905C84.945 32.773 89 41.92 89 52 89 72.402 72.402 89 52 89z" data-fill-palette-color="accent"></path></svg>
                                    </g>
                                </svg>
                            </g>
                        </svg>
                    </g>
                </svg>
            </g>
        </svg>
    </g>
</svg>